<svg width="37" height="37" viewBox="0 0 37 37" fill="none" xmlns="http://www.w3.org/2000/svg">
<circle cx="18.5" cy="18.5" r="18.5" fill="black" style="fill:black;fill-opacity:1;"/>
<path d="M20.128 9.4C22.0133 9.4 23.6 10.0347 24.888 11.304C26.176 12.5733 26.82 14.132 26.82 15.98C26.82 17.828 26.176 19.3867 24.888 20.656C23.6 21.9253 22.0133 22.56 20.128 22.56H16.684V29H12.82V9.4H20.128ZM20.128 18.948C20.9493 18.948 21.6307 18.668 22.172 18.108C22.7133 17.5293 22.984 16.82 22.984 15.98C22.984 15.1213 22.7133 14.412 22.172 13.852C21.6307 13.292 20.9493 13.012 20.128 13.012H16.684V18.948H20.128Z" fill="white" style="fill:white;fill-opacity:1;"/>
</svg>
